<svg version="1.1" id="Layer_1" xmlns="http://www.w3.org/2000/svg" xmlns:xlink="http://www.w3.org/1999/xlink" x="0px" y="0px"
	 width="100%" viewBox="0 0 275 183" enable-background="new 0 0 275 183" xml:space="preserve">
<path fill="#FEFEFE" opacity="1.000000" stroke="none" 
	d="
M173.000000,184.000000 
	C115.333344,184.000000 58.166679,184.000000 1.000015,184.000000 
	C1.000010,123.000015 1.000010,62.000027 1.000005,1.000032 
	C92.666649,1.000021 184.333298,1.000021 275.999939,1.000011 
	C275.999969,61.999969 275.999969,122.999939 276.000000,183.999954 
	C241.833328,184.000000 207.666672,184.000000 173.000000,184.000000 
M260.618378,113.853195 
	C261.606598,113.478523 262.594788,113.103851 264.247437,112.762367 
	C264.800964,112.414375 265.354492,112.066383 266.542267,111.874992 
	C267.385223,111.265213 268.228210,110.655434 269.593323,109.830284 
	C270.099884,109.295387 270.606415,108.760490 271.764679,107.927124 
	C272.762482,104.633919 273.760254,101.340721 274.871887,97.315170 
	C273.009644,94.177879 271.147369,91.040588 268.995453,87.276993 
	C255.539474,76.536896 240.182602,69.474304 223.432999,63.544647 
	C216.570923,62.596233 209.718948,60.957142 202.844467,60.856678 
	C191.743805,60.694443 180.618668,61.392673 169.527283,62.096550 
	C167.317764,62.236771 165.213425,64.034332 162.156509,65.176682 
	C154.950317,63.548580 147.741928,61.930134 140.538712,60.288979 
	C135.740570,59.195789 130.949829,58.070198 126.017494,56.263279 
	C114.767357,50.128391 103.517212,43.993507 91.778175,37.373928 
	C90.527092,36.818058 89.276016,36.262188 87.527092,35.258446 
	C84.450424,33.785614 81.373749,32.312782 77.818344,30.311724 
	C73.879967,28.507772 69.941597,26.703821 65.505409,24.440514 
	C62.995224,23.319086 60.485039,22.197659 57.546379,20.520115 
	C46.053982,15.458895 34.561584,10.397675 22.539129,4.986409 
	C20.564533,4.266041 18.589935,3.545672 16.615339,2.825303 
	C16.372269,3.274848 16.129198,3.724392 15.886127,4.173936 
	C18.254856,6.121552 20.623583,8.069168 23.323530,10.610557 
	C24.917786,11.998659 26.423052,13.507918 28.120884,14.755009 
	C38.382774,22.292555 48.688702,29.770153 59.387264,37.778763 
	C60.876087,38.724846 62.364914,39.670929 64.287201,41.053932 
	C68.156700,43.432240 72.026199,45.810543 76.277000,48.764347 
	C75.797249,49.335152 75.251984,50.446266 74.847389,50.397209 
	C66.221680,49.351383 57.611759,48.175323 48.233425,46.735611 
	C43.168034,46.119781 38.102638,45.503948 32.639179,44.470066 
	C32.080517,44.470318 31.521852,44.470573 30.337749,44.255413 
	C28.569012,44.133453 26.800272,44.011494 24.416622,43.395523 
	C17.294174,42.567127 10.171724,41.738731 3.049276,40.910336 
	C2.881067,41.304325 2.712857,41.698315 2.544648,42.092304 
	C4.657928,43.458511 6.771209,44.824722 9.261836,46.748604 
	C12.129687,48.272934 14.997538,49.797260 18.324930,51.809261 
	C25.876682,54.476147 33.428432,57.143028 41.708874,60.142178 
	C42.765545,60.277897 43.822216,60.413616 45.445099,60.959427 
	C47.302559,61.289268 49.160015,61.619114 51.384365,62.403309 
	C51.934818,62.415318 52.485268,62.427326 53.719582,62.785389 
	C54.475903,62.830326 55.232227,62.875263 56.639568,63.317085 
	C61.948509,64.267113 67.257454,65.217133 72.958870,66.806099 
	C78.303543,67.865097 83.648224,68.924088 89.663361,70.191574 
	C90.594704,70.195473 91.526054,70.199371 92.794319,70.749214 
	C93.529869,70.948555 94.265419,71.147896 95.680763,71.636414 
	C96.170387,71.636490 96.660019,71.636566 97.513626,72.220146 
	C98.649712,72.363480 99.785789,72.506813 101.649788,73.001625 
	C102.723183,73.079178 103.796585,73.156731 105.406235,73.804893 
	C108.607018,74.220940 111.807800,74.636986 115.532204,75.149155 
	C115.696182,75.081322 115.860153,75.013481 116.714432,75.264320 
	C119.737366,75.962273 122.760307,76.660217 125.499947,77.975479 
	C125.992035,78.574806 126.484123,79.174141 127.365021,80.140060 
	C127.543083,80.144905 127.721138,80.149742 128.094803,80.783951 
	C132.275146,84.810547 136.825134,88.526176 140.541168,92.943375 
	C145.065033,98.320831 148.886993,104.288803 152.802841,110.645760 
	C153.671173,120.998375 159.923370,128.993515 164.705429,138.350388 
	C171.128845,148.248978 177.552246,158.147583 184.103134,168.523102 
	C184.312943,168.796844 184.586456,168.969925 185.057877,169.706558 
	C190.243271,175.563934 195.920914,180.636780 204.742889,181.852524 
	C205.166367,181.864075 205.589828,181.875626 206.590454,182.276733 
	C208.389328,182.157501 210.188217,182.038269 212.789810,181.935699 
	C218.167770,180.301041 223.643082,178.926773 228.897842,176.962509 
	C234.807297,174.753494 236.941040,170.884338 236.971054,163.494522 
	C236.587433,162.332779 236.203812,161.171051 235.857422,159.365952 
	C235.273239,158.491837 234.689041,157.617722 233.829132,155.897186 
	C232.525146,155.055420 231.221161,154.213638 229.823486,153.448807 
	C229.823486,153.448807 229.592331,153.349991 230.424545,152.661758 
	C226.532669,149.136108 222.714905,145.523895 218.727478,142.109848 
	C214.954865,138.879730 211.004150,135.857651 206.972610,132.017075 
	C205.656189,131.659714 204.339767,131.302353 202.426773,130.562134 
	C197.539230,127.777695 192.651688,124.993248 187.777695,121.523262 
	C180.259201,114.995277 172.740692,108.467285 164.975189,101.297043 
	C161.095062,97.153961 157.214951,93.010880 153.114502,88.191704 
	C151.485275,85.210861 149.856049,82.230019 148.923019,79.249397 
	C150.290573,79.417404 151.658142,79.585403 153.799423,79.927299 
	C154.851990,79.976799 155.904572,80.026299 157.501541,80.552788 
	C159.647095,81.063515 161.792633,81.574234 164.187546,82.475075 
	C165.017059,82.694351 165.846558,82.913620 166.972382,83.765198 
	C174.671234,86.928596 182.370071,90.092003 190.591568,93.704460 
	C191.249237,93.876495 191.906906,94.048531 192.907211,94.737350 
	C193.625946,94.933441 194.344681,95.129539 195.659286,95.786369 
	C197.075638,96.268959 198.491989,96.751541 200.318161,97.534676 
	C200.776093,97.735336 201.234039,97.936005 202.013916,98.628586 
	C202.689697,98.824242 203.365463,99.019897 204.554672,99.684784 
	C205.209885,99.878899 205.865082,100.073006 206.843323,100.785736 
	C207.588089,100.947655 208.332870,101.109581 209.524460,101.870537 
	C210.965683,102.989159 212.406921,104.107773 214.373260,105.732346 
	C226.577072,108.408394 238.780899,111.084442 251.645050,113.962326 
	C252.100235,113.922066 252.555420,113.881805 253.868668,114.027252 
	C255.906845,113.933914 257.945007,113.840576 260.618378,113.853195 
z"/>
<path fill="#868585" opacity="1.000000" stroke="none" 
	d="
M57.974854,21.076233 
	C60.485039,22.197659 62.995224,23.319086 65.785141,25.039116 
	C68.816353,31.841713 72.069916,33.225422 78.297081,30.839951 
	C81.373749,32.312782 84.450424,33.785614 87.791199,35.849602 
	C88.631149,39.373161 90.353699,38.899330 92.267075,37.858624 
	C103.517212,43.993507 114.767357,50.128391 125.694283,56.590836 
	C122.360191,55.543091 119.543259,55.652271 116.703003,57.845963 
	C113.863792,56.452946 111.427406,54.982273 108.800323,54.047508 
	C104.278397,52.438526 98.849876,53.051334 95.467316,48.709412 
	C91.131027,43.143291 87.267159,50.530003 82.999977,49.145096 
	C82.203186,48.886497 80.766998,50.198608 79.825699,51.015965 
	C79.523865,51.278049 79.865219,52.280842 79.970406,53.764164 
	C74.075760,53.140373 68.676620,52.668110 63.306927,51.969524 
	C58.989059,51.407776 54.683823,50.677101 50.433304,49.746021 
	C49.787407,49.604538 49.468769,47.969063 48.998764,47.024612 
	C57.611759,48.175323 66.221680,49.351383 74.847389,50.397209 
	C75.251984,50.446266 75.797249,49.335152 76.265221,48.189484 
	C77.255478,46.308392 78.257515,45.002159 79.259560,43.695927 
	C77.724213,43.531170 76.187950,43.374523 74.653748,43.199703 
	C72.490318,42.953182 69.633240,44.261185 69.545433,40.024361 
	C69.516426,38.624825 67.357414,37.269432 65.304588,34.886673 
	C64.596008,37.685314 64.224876,39.151161 63.853737,40.617012 
	C62.364914,39.670929 60.876087,38.724846 59.164848,37.142639 
	C58.079384,34.500900 56.542023,32.506214 56.509289,30.487133 
	C56.458572,27.358908 57.434326,24.214041 57.974854,21.076233 
M87.519737,40.920765 
	C87.762901,40.775951 88.006065,40.631142 88.249229,40.486328 
	C87.998474,40.352192 87.683640,40.057091 87.513260,40.124901 
	C87.302971,40.208603 87.212814,40.594128 87.519737,40.920765 
z"/>
<path fill="#1F2020" opacity="1.000000" stroke="none" 
	d="
M223.996002,64.016930 
	C240.182602,69.474304 255.539474,76.536896 268.850250,87.734444 
	C266.452301,87.781273 264.045715,87.742393 261.977264,86.886444 
	C256.904175,84.787163 251.987000,82.311157 246.814087,79.704926 
	C245.128250,78.385834 243.774673,76.923241 242.119644,76.381371 
	C232.533005,73.242630 222.990707,69.830208 213.194443,67.526520 
	C208.068619,66.321129 202.048874,65.537216 197.715271,71.281219 
	C195.410110,74.825012 194.768387,78.002693 198.395920,80.711449 
	C200.925095,82.600029 203.465897,84.473083 205.951645,86.669418 
	C204.916458,87.669998 203.931137,88.354233 202.575684,89.027222 
	C197.139801,86.849297 191.977570,84.877892 187.045074,82.441460 
	C184.162811,81.017761 181.647476,78.851204 179.316498,77.006653 
	C180.025970,75.966690 180.386047,74.938911 180.987946,73.220848 
	C184.432327,71.583580 189.128265,69.409775 193.748459,67.085373 
	C194.363663,66.775856 194.594589,65.702499 195.388489,64.932938 
	C203.435242,61.668884 211.178940,62.678757 218.984940,64.276428 
	C220.571136,64.601074 222.321381,64.124268 223.996002,64.016930 
z"/>
<path fill="#9A9A9A" opacity="1.000000" stroke="none" 
	d="
M117.020020,58.009453 
	C119.543259,55.652271 122.360191,55.543091 125.763420,56.938751 
	C130.949829,58.070198 135.740570,59.195789 140.538712,60.288979 
	C147.741928,61.930134 154.950317,63.548580 162.617767,65.502884 
	C163.399475,67.219643 163.719925,68.610191 164.067139,70.252892 
	C164.089996,70.674042 164.086090,70.843048 163.736526,71.002922 
	C162.930298,71.002655 162.469711,71.011520 161.742859,70.833733 
	C158.838135,70.647072 156.199661,70.647072 153.932816,70.647072 
	C153.610779,73.879936 153.318222,76.816673 153.025696,79.753403 
	C151.658142,79.585403 150.290573,79.417404 148.363159,78.923187 
	C146.456924,78.147636 145.108856,77.316833 143.764481,77.322800 
	C140.193771,77.338623 136.624649,77.715530 133.001892,77.611015 
	C132.659439,75.953690 132.370026,74.634163 132.430267,73.224808 
	C134.248703,71.759575 135.717438,70.384171 137.186188,69.008774 
	C136.967896,68.564461 136.749619,68.120155 136.531326,67.675850 
	C135.028427,67.449875 133.525513,67.223900 132.035065,66.750679 
	C132.047546,66.503433 132.180588,66.026527 132.540619,66.013672 
	C133.884949,65.504005 134.869247,65.007187 136.447937,64.210350 
	C127.438431,60.729313 124.471336,62.639595 125.425171,70.331627 
	C124.618217,70.232224 123.811600,70.129784 122.962990,69.649628 
	C121.579247,68.118080 120.386246,66.264412 118.867844,65.941658 
	C114.313522,64.973564 109.632118,64.603371 105.000565,63.660194 
	C105.002319,62.867184 105.003815,62.413815 105.453667,61.964439 
	C110.008156,61.772453 114.781853,63.451225 117.020020,58.009453 
M146.586685,75.519127 
	C146.586685,75.519127 146.477051,75.585297 146.586685,75.519127 
z"/>
<path fill="#818181" opacity="1.000000" stroke="none" 
	d="
M116.703003,57.845963 
	C114.781853,63.451225 110.008156,61.772453 105.219681,61.674095 
	C99.036163,60.421917 93.558205,59.292667 88.028702,58.544125 
	C78.368668,57.236427 68.676926,56.162849 58.626862,54.922359 
	C55.177765,54.243755 52.100277,53.633957 48.583015,53.015045 
	C46.095798,53.004059 44.048359,53.002182 41.923233,52.622528 
	C36.413239,48.726368 29.111990,51.554577 24.020367,46.658333 
	C24.378448,45.516724 24.704992,44.703129 25.031536,43.889534 
	C26.800272,44.011494 28.569012,44.133453 30.717506,44.621346 
	C31.743925,44.954220 32.390587,44.921169 33.037247,44.888119 
	C38.102638,45.503948 43.168034,46.119781 48.616096,46.880112 
	C49.468769,47.969063 49.787407,49.604538 50.433304,49.746021 
	C54.683823,50.677101 58.989059,51.407776 63.306927,51.969524 
	C68.676620,52.668110 74.075760,53.140373 79.970406,53.764164 
	C79.865219,52.280842 79.523865,51.278049 79.825699,51.015965 
	C80.766998,50.198608 82.203186,48.886497 82.999977,49.145096 
	C87.267159,50.530003 91.131027,43.143291 95.467316,48.709412 
	C98.849876,53.051334 104.278397,52.438526 108.800323,54.047508 
	C111.427406,54.982273 113.863792,56.452946 116.703003,57.845963 
z"/>
<path fill="#090909" opacity="1.000000" stroke="none" 
	d="
M164.082169,71.012054 
	C164.086090,70.843048 164.089996,70.674042 164.438507,70.267014 
	C167.520889,71.048103 170.258698,72.067223 173.045120,73.422363 
	C175.051529,74.845200 177.009293,75.932022 178.967072,77.018845 
	C181.647476,78.851204 184.162811,81.017761 187.045074,82.441460 
	C191.977570,84.877892 197.139801,86.849297 202.625717,89.349808 
	C204.360458,90.131424 205.675049,90.579216 207.285995,91.047058 
	C208.050903,91.380508 208.519440,91.693909 209.040863,92.345734 
	C211.343048,94.276764 213.404938,96.778206 215.877472,97.287994 
	C222.725235,98.699852 229.751587,99.231232 236.685699,100.256966 
	C237.519684,100.380333 238.219543,101.405647 238.983063,102.011032 
	C239.812805,102.668907 240.551712,103.552238 241.493698,103.935493 
	C243.706772,104.835884 245.968140,105.842529 248.299820,106.173943 
	C251.842102,106.677429 255.460541,106.645096 259.447357,106.797729 
	C262.144257,106.454178 264.440430,106.153252 267.145447,105.894958 
	C268.740540,106.700264 269.926727,107.462921 271.112946,108.225586 
	C270.606415,108.760490 270.099884,109.295387 268.991943,109.907455 
	C267.563019,110.562546 266.735535,111.140465 265.908020,111.718391 
	C265.354492,112.066383 264.800964,112.414375 263.534088,112.473495 
	C261.896973,112.062691 260.973175,111.940765 259.857941,111.626877 
	C258.807739,111.579834 257.948975,111.724739 256.821503,111.869522 
	C256.373627,111.872627 256.194489,111.875847 255.777863,111.653282 
	C254.679276,111.367096 253.818207,111.306694 252.640381,111.178177 
	C251.894272,111.134178 251.464920,111.158295 250.620468,111.128693 
	C238.473770,108.379944 226.742172,105.684937 214.839661,102.699066 
	C212.797028,101.203735 210.925293,99.999268 208.835785,98.701050 
	C208.617996,98.607285 208.158844,98.488739 208.023605,98.199310 
	C205.949417,96.902802 204.010468,95.895714 201.775696,94.725800 
	C191.980682,89.386696 182.481461,84.210419 172.776733,78.773926 
	C169.741516,76.013168 166.911850,73.512611 164.082169,71.012054 
z"/>
<path fill="#969593" opacity="1.000000" stroke="none" 
	d="
M49.022789,53.024158 
	C52.100277,53.633957 55.177765,54.243755 58.629570,55.337547 
	C59.574112,56.849770 59.958042,58.591915 60.743122,58.796780 
	C69.453445,61.069687 78.681000,60.233299 87.291710,63.808743 
	C91.387924,65.509621 96.306023,65.372864 100.878159,65.697311 
	C102.205376,65.791496 103.623726,64.601280 105.000305,63.999844 
	C109.632118,64.603371 114.313522,64.973564 118.867844,65.941658 
	C120.386246,66.264412 121.579247,68.118080 122.922272,70.005081 
	C120.623741,72.140717 118.323936,73.543182 116.024132,74.945648 
	C115.860153,75.013481 115.696182,75.081322 115.259399,74.696716 
	C113.141434,70.038315 108.627556,69.587677 104.869980,73.234283 
	C103.796585,73.156731 102.723183,73.079178 101.129456,72.588722 
	C99.455971,71.996094 98.302803,71.816368 97.149643,71.636642 
	C96.660019,71.636566 96.170387,71.636490 95.218285,71.214645 
	C93.989670,70.596344 93.223534,70.399811 92.457397,70.203278 
	C91.526054,70.199371 90.594704,70.195473 89.091049,69.807007 
	C83.201294,68.337349 77.883842,67.252251 72.566391,66.167160 
	C67.257454,65.217133 61.948509,64.267113 56.304787,62.755318 
	C55.167667,61.360455 54.407494,60.481113 53.554588,59.703472 
	C51.504715,57.834476 48.268951,56.790783 49.022789,53.024158 
z"/>
<path fill="#898989" opacity="1.000000" stroke="none" 
	d="
M57.760616,20.798172 
	C57.434326,24.214041 56.458572,27.358908 56.509289,30.487133 
	C56.542023,32.506214 58.079384,34.500900 58.961166,36.887161 
	C48.688702,29.770153 38.382774,22.292555 28.120884,14.755009 
	C26.423052,13.507918 24.917786,11.998659 23.159466,9.849391 
	C23.019995,7.837635 23.044590,6.587044 23.069187,5.336453 
	C34.561584,10.397675 46.053982,15.458895 57.760616,20.798172 
z"/>
<path fill="#818181" opacity="1.000000" stroke="none" 
	d="
M133.054901,77.948814 
	C136.624649,77.715530 140.193771,77.338623 143.764481,77.322800 
	C145.108856,77.316833 146.456924,78.147636 148.015076,78.923080 
	C149.856049,82.230019 151.485275,85.210861 152.787140,88.564842 
	C151.309952,89.932068 149.436493,90.749992 149.143707,91.952713 
	C148.202820,95.817780 150.110626,98.451027 153.569107,100.363647 
	C155.577972,101.474602 157.192047,103.299484 158.664062,104.873459 
	C157.518158,105.566818 156.691971,106.189819 155.652023,106.953537 
	C155.247025,107.374916 155.055801,107.655579 154.652832,108.122620 
	C153.964920,108.873108 153.488754,109.437233 153.012573,110.001343 
	C148.886993,104.288803 145.065033,98.320831 140.541168,92.943375 
	C136.825134,88.526176 132.275146,84.810547 128.214691,80.176018 
	C129.908035,79.028328 131.481461,78.488571 133.054901,77.948814 
z"/>
<path fill="#090909" opacity="1.000000" stroke="none" 
	d="
M187.764145,122.208809 
	C192.651688,124.993248 197.539230,127.777695 202.557312,131.008728 
	C202.120087,131.638565 201.552322,131.821808 200.692841,132.036163 
	C200.268341,132.715408 200.135529,133.363525 200.047424,134.324051 
	C200.834503,134.758636 201.602783,135.065201 202.313858,134.965149 
	C203.858749,134.747818 205.374420,134.322876 206.894653,134.293793 
	C203.747101,139.632736 208.514114,139.590942 210.806427,141.283371 
	C210.045792,142.451569 209.475296,143.350327 208.531464,144.198181 
	C204.876404,142.744385 201.702286,140.861389 198.278137,140.093842 
	C195.643204,139.503189 192.693771,140.315552 189.561401,140.630600 
	C187.889481,141.588211 186.540344,142.419266 185.130859,143.133041 
	C185.070511,143.015762 184.899231,142.815140 184.924316,142.475037 
	C184.535065,138.654968 182.588165,140.469177 180.692841,140.993256 
	C179.944687,140.983810 179.517685,140.976807 179.051041,140.646774 
	C178.999969,139.889725 178.988541,139.455704 179.152588,138.774536 
	C179.893707,138.351608 180.459351,138.175797 181.419403,137.998260 
	C185.320312,136.228775 188.826813,134.461029 192.333298,132.693283 
	C192.207367,132.269547 192.081451,131.845795 191.955521,131.422058 
	C188.308563,132.615906 184.661606,133.809738 181.011902,134.602478 
	C182.554306,129.543549 183.328003,124.892570 181.042877,120.212440 
	C180.852249,119.822006 181.043411,119.245171 181.393219,118.851349 
	C183.740875,120.034782 185.752518,121.121796 187.764145,122.208809 
M189.456467,126.589554 
	C188.330978,126.737679 187.205505,126.885811 186.080017,127.033936 
	C186.272629,127.619431 186.465240,128.204926 186.657837,128.790421 
	C187.625763,128.277176 188.593674,127.763947 189.456467,126.589554 
z"/>
<path fill="#393939" opacity="1.000000" stroke="none" 
	d="
M172.996490,73.086342 
	C170.258698,72.067223 167.520889,71.048103 164.411743,70.014862 
	C163.719925,68.610191 163.399475,67.219643 163.069794,65.448372 
	C165.213425,64.034332 167.317764,62.236771 169.527283,62.096550 
	C180.618668,61.392673 191.743805,60.694443 202.844467,60.856678 
	C209.718948,60.957142 216.570923,62.596233 223.714508,63.780788 
	C222.321381,64.124268 220.571136,64.601074 218.984940,64.276428 
	C211.178940,62.678757 203.435242,61.668884 195.115204,64.647446 
	C189.358841,64.603889 184.261978,64.842896 179.162354,64.975586 
	C173.227936,65.129982 171.542114,67.302292 172.996490,73.086342 
z"/>
<path fill="#121313" opacity="1.000000" stroke="none" 
	d="
M206.013306,181.887192 
	C205.589828,181.875626 205.166367,181.864075 204.361099,181.435974 
	C201.580597,179.363663 199.181885,177.707901 197.212128,176.032349 
	C199.709229,176.482086 201.770508,176.984909 203.846939,177.414459 
	C208.701187,178.418671 213.670578,180.483292 218.371582,175.989349 
	C222.841583,173.639847 226.933777,171.329330 231.367737,168.962341 
	C232.149643,167.938049 232.589767,166.970245 233.390320,165.938385 
	C234.774353,165.280304 235.797958,164.686279 236.821548,164.092239 
	C236.941040,170.884338 234.807297,174.753494 228.897842,176.962509 
	C223.643082,178.926773 218.167770,180.301041 212.125305,181.687592 
	C209.644974,181.588715 207.829147,181.737961 206.013306,181.887192 
z"/>
<path fill="#7A7A7A" opacity="1.000000" stroke="none" 
	d="
M23.988829,46.986347 
	C29.111990,51.554577 36.413239,48.726368 41.922775,52.622375 
	C42.000000,53.000000 42.000305,53.000916 41.652496,53.033939 
	C34.781109,55.005871 40.882179,57.552338 40.980186,59.809910 
	C33.428432,57.143028 25.876682,54.476147 18.176064,51.186466 
	C19.245287,50.163464 20.564768,49.938278 21.650385,49.309383 
	C22.569830,48.776749 23.218765,47.777145 23.992319,46.989471 
	C23.997227,46.994759 23.988829,46.986347 23.988829,46.986347 
z"/>
<path fill="#737373" opacity="1.000000" stroke="none" 
	d="
M172.982254,79.034134 
	C182.481461,84.210419 191.980682,89.386696 201.599182,94.999954 
	C201.115082,96.035995 200.511703,96.635063 199.908340,97.234131 
	C198.491989,96.751541 197.075638,96.268959 195.234924,95.280945 
	C194.061905,94.590530 193.313232,94.405548 192.564575,94.220566 
	C191.906906,94.048531 191.249237,93.876495 190.200317,93.206734 
	C182.098068,89.516968 174.387070,86.324928 166.676071,83.132889 
	C165.846558,82.913620 165.017059,82.694351 164.336517,81.992157 
	C167.317749,80.684212 170.150009,79.859177 172.982254,79.034134 
z"/>
<path fill="#7A7A7A" opacity="1.000000" stroke="none" 
	d="
M158.983765,104.803108 
	C157.192047,103.299484 155.577972,101.474602 153.569107,100.363647 
	C150.110626,98.451027 148.202820,95.817780 149.143707,91.952713 
	C149.436493,90.749992 151.309952,89.932068 152.897308,88.902893 
	C157.214951,93.010880 161.095062,97.153961 164.748566,101.660774 
	C163.690582,102.980515 162.859222,103.936523 161.646530,104.915466 
	C160.504730,104.893303 159.744247,104.848206 158.983765,104.803108 
z"/>
<path fill="#898989" opacity="1.000000" stroke="none" 
	d="
M133.001892,77.611015 
	C131.481461,78.488571 129.908035,79.028328 128.116898,79.861336 
	C127.721138,80.149742 127.543083,80.144905 127.147629,79.735794 
	C126.547905,78.673737 126.165573,78.015953 125.783241,77.358162 
	C122.760307,76.660217 119.737366,75.962273 116.369278,75.104980 
	C118.323936,73.543182 120.623741,72.140717 122.964264,70.382797 
	C123.811600,70.129784 124.618217,70.232224 125.425171,70.331627 
	C124.471336,62.639595 127.438431,60.729313 136.447937,64.210350 
	C134.869247,65.007187 133.884949,65.504005 132.372864,65.776764 
	C131.564377,66.346008 131.283676,67.139313 130.949768,68.284393 
	C129.698029,69.485474 128.499481,70.334770 126.427345,71.803108 
	C128.880020,72.458885 130.480301,72.886765 132.080597,73.314636 
	C132.370026,74.634163 132.659439,75.953690 133.001892,77.611015 
z"/>
<path fill="#3E3E3E" opacity="1.000000" stroke="none" 
	d="
M215.010590,102.989922 
	C226.742172,105.684937 238.473770,108.379944 250.611374,111.447990 
	C251.006500,112.467514 250.995605,113.113998 250.984711,113.760490 
	C238.780899,111.084442 226.577072,108.408394 214.264938,105.203957 
	C214.441269,104.113686 214.725922,103.551804 215.010590,102.989922 
z"/>
<path fill="#1B1B1B" opacity="1.000000" stroke="none" 
	d="
M210.996552,141.013931 
	C208.514114,139.590942 203.747101,139.632736 206.938843,133.981689 
	C207.037537,133.153748 207.084656,132.948898 207.131760,132.744064 
	C211.004150,135.857651 214.954865,138.879730 218.727478,142.109848 
	C222.714905,145.523895 226.532669,149.136108 229.728241,152.742554 
	C228.366577,152.888718 227.701218,152.954086 226.719147,153.031708 
	C225.633652,153.355438 224.864868,153.666901 223.810211,153.774780 
	C219.348419,149.385422 215.172485,145.199677 210.996552,141.013931 
z"/>
<path fill="#5D5D5D" opacity="1.000000" stroke="none" 
	d="
M183.975677,168.046173 
	C177.552246,158.147583 171.128845,148.248978 164.843231,137.674377 
	C165.337677,136.663208 165.694336,136.328033 166.350769,136.148010 
	C168.291626,138.951828 169.929138,141.602722 171.574661,144.248657 
	C174.026901,148.191818 176.484787,152.131470 178.983124,156.408447 
	C180.322433,158.571793 181.618896,160.399292 182.925415,162.600403 
	C183.282196,164.664734 183.628937,166.355453 183.975677,168.046173 
z"/>
<path fill="#656566" opacity="1.000000" stroke="none" 
	d="
M166.051010,135.992859 
	C165.694336,136.328033 165.337677,136.663208 164.807251,137.331146 
	C159.923370,128.993515 153.671173,120.998375 152.907715,110.323555 
	C153.488754,109.437233 153.964920,108.873108 154.743286,108.508080 
	C156.577713,112.647331 158.067062,116.604851 159.652802,120.523369 
	C161.745972,125.695877 163.914734,130.837784 166.051010,135.992859 
z"/>
<path fill="#484848" opacity="1.000000" stroke="none" 
	d="
M247.007095,79.986710 
	C251.987000,82.311157 256.904175,84.787163 261.977264,86.886444 
	C264.045715,87.742393 266.452301,87.781273 268.995087,88.047600 
	C271.147369,91.040588 273.009644,94.177879 274.526062,97.735291 
	C270.149872,100.402161 271.509674,96.260269 271.116577,95.167091 
	C270.014984,92.103630 269.078430,90.882591 266.511230,94.172562 
	C259.749756,89.805672 253.320511,85.523796 246.925323,80.928589 
	C246.975311,80.405746 246.991211,80.196228 247.007095,79.986710 
z"/>
<path fill="#818181" opacity="1.000000" stroke="none" 
	d="
M162.027847,104.892532 
	C162.859222,103.936523 163.690582,102.980515 164.872070,101.981903 
	C172.740692,108.467285 180.259201,114.995277 187.770920,121.866035 
	C185.752518,121.121796 183.740875,120.034782 181.243439,118.614853 
	C179.962311,117.808754 179.166977,117.335556 178.160629,116.596756 
	C176.670319,115.422806 175.391052,114.514442 173.924561,113.374512 
	C172.898346,112.632164 172.059341,112.121399 171.116058,111.419571 
	C170.811005,111.005684 170.565308,110.857162 170.081512,110.494835 
	C167.268173,108.435333 164.648010,106.663933 162.027847,104.892532 
z"/>
<path fill="#868585" opacity="1.000000" stroke="none" 
	d="
M172.776733,78.773926 
	C170.150009,79.859177 167.317749,80.684212 164.211853,81.797104 
	C161.792633,81.574234 159.647095,81.063515 157.385590,79.970291 
	C157.925018,78.311668 158.453949,76.424171 159.257477,76.298981 
	C162.860001,75.737671 161.825195,73.133049 162.009125,71.020393 
	C162.469711,71.011520 162.930298,71.002655 163.736526,71.002922 
	C166.911850,73.512611 169.741516,76.013168 172.776733,78.773926 
z"/>
<path fill="#313131" opacity="1.000000" stroke="none" 
	d="
M184.039398,168.284637 
	C183.628937,166.355453 183.282196,164.664734 183.041473,162.288483 
	C182.423355,159.417542 181.699219,157.232101 181.269043,155.027451 
	C181.759186,155.000076 181.955414,154.991928 182.483673,154.982513 
	C183.257324,154.962448 183.698929,154.943634 184.092911,154.933502 
	C184.045273,154.942200 184.050629,154.845505 184.141235,155.099915 
	C184.512833,155.563629 184.793808,155.772919 185.339920,156.179321 
	C186.426041,158.182648 187.247025,159.988846 188.050232,162.188187 
	C188.473236,164.868790 187.576843,168.448532 192.366409,166.901001 
	C193.126648,167.583572 193.620712,168.155701 193.924561,169.027985 
	C192.791046,170.264359 191.847763,171.200592 190.600739,171.982513 
	C188.505890,170.899567 186.714783,169.970932 184.923676,169.042297 
	C184.586456,168.969925 184.312943,168.796844 184.039398,168.284637 
M184.610107,163.599350 
	C185.061081,164.013657 185.512039,164.427963 185.963013,164.842285 
	C186.131302,164.657730 186.299591,164.473190 186.467880,164.288651 
	C185.966751,163.940887 185.465622,163.593140 184.610107,163.599350 
z"/>
<path fill="#242625" opacity="1.000000" stroke="none" 
	d="
M266.843475,94.257584 
	C269.078430,90.882591 270.014984,92.103630 271.116577,95.167091 
	C271.509674,96.260269 270.149872,100.402161 274.469177,98.101456 
	C273.760254,101.340721 272.762482,104.633919 271.438812,108.076355 
	C269.926727,107.462921 268.740540,106.700264 267.305817,105.583740 
	C269.287292,101.527603 268.872986,97.876854 266.843475,94.257584 
z"/>
<path fill="#898989" opacity="1.000000" stroke="none" 
	d="
M48.583015,53.015045 
	C48.268951,56.790783 51.504715,57.834476 53.554588,59.703472 
	C54.407494,60.481113 55.167667,61.360455 55.979279,62.556873 
	C55.232227,62.875263 54.475903,62.830326 53.309525,62.375801 
	C52.272141,61.960461 51.644806,61.954708 51.017475,61.948959 
	C49.160015,61.619114 47.302559,61.289268 45.172882,60.355835 
	C43.933876,57.501801 42.967091,55.251358 42.000305,53.000916 
	C42.000305,53.000916 42.000000,53.000000 42.000458,53.000153 
	C44.048359,53.002182 46.095798,53.004059 48.583015,53.015045 
z"/>
<path fill="#898989" opacity="1.000000" stroke="none" 
	d="
M64.070473,40.835472 
	C64.224876,39.151161 64.596008,37.685314 65.304588,34.886673 
	C67.357414,37.269432 69.516426,38.624825 69.545433,40.024361 
	C69.633240,44.261185 72.490318,42.953182 74.653748,43.199703 
	C76.187950,43.374523 77.724213,43.531170 79.259560,43.695927 
	C78.257515,45.002159 77.255478,46.308392 76.074570,47.901737 
	C72.026199,45.810543 68.156700,43.432240 64.070473,40.835472 
z"/>
<path fill="#8D8D8D" opacity="1.000000" stroke="none" 
	d="
M161.742859,70.833733 
	C161.825195,73.133049 162.860001,75.737671 159.257477,76.298981 
	C158.453949,76.424171 157.925018,78.311668 157.113403,79.731789 
	C155.904572,80.026299 154.851990,79.976799 153.412552,79.840347 
	C153.318222,76.816673 153.610779,73.879936 153.932816,70.647072 
	C156.199661,70.647072 158.838135,70.647072 161.742859,70.833733 
z"/>
<path fill="#8D8D8D" opacity="1.000000" stroke="none" 
	d="
M24.724079,43.642529 
	C24.704992,44.703129 24.378448,45.516724 24.020367,46.658333 
	C23.988829,46.986347 23.997227,46.994759 23.652988,46.841400 
	C18.547972,45.149662 13.825823,42.490376 8.884489,46.190929 
	C6.771209,44.824722 4.657928,43.458511 2.544648,42.092304 
	C2.712857,41.698315 2.881067,41.304325 3.049276,40.910336 
	C10.171724,41.738731 17.294174,42.567127 24.724079,43.642529 
z"/>
<path fill="#818181" opacity="1.000000" stroke="none" 
	d="
M9.073162,46.469765 
	C13.825823,42.490376 18.547972,45.149662 23.648081,46.836117 
	C23.218765,47.777145 22.569830,48.776749 21.650385,49.309383 
	C20.564768,49.938278 19.245287,50.163464 17.946293,50.942627 
	C14.997538,49.797260 12.129687,48.272934 9.073162,46.469765 
z"/>
<path fill="#5D5D5D" opacity="1.000000" stroke="none" 
	d="
M184.990784,169.374420 
	C186.714783,169.970932 188.505890,170.899567 190.689438,172.310257 
	C192.982315,173.878937 194.882736,174.965546 196.783173,176.052155 
	C199.181885,177.707901 201.580597,179.363663 204.055054,181.346680 
	C195.920914,180.636780 190.243271,175.563934 184.990784,169.374420 
z"/>
<path fill="#868585" opacity="1.000000" stroke="none" 
	d="
M166.824219,83.449043 
	C174.387070,86.324928 182.098068,89.516968 189.938995,92.982208 
	C182.370071,90.092003 174.671234,86.928596 166.824219,83.449043 
z"/>
<path fill="#898989" opacity="1.000000" stroke="none" 
	d="
M78.057709,30.575836 
	C72.069916,33.225422 68.816353,31.841713 66.034042,25.268791 
	C69.941597,26.703821 73.879967,28.507772 78.057709,30.575836 
z"/>
<path fill="#1B1B1B" opacity="1.000000" stroke="none" 
	d="
M236.896301,163.793381 
	C235.797958,164.686279 234.774353,165.280304 233.138306,165.934937 
	C232.358109,165.994415 232.190338,165.993286 232.001160,165.737488 
	C231.957428,165.313904 231.935120,165.144989 231.944443,164.734024 
	C231.976089,164.491959 232.019196,164.005600 232.316162,163.966400 
	C232.929626,163.519058 233.246140,163.110916 233.562653,162.702759 
	C233.048599,162.466537 232.534546,162.230301 232.003906,161.659760 
	C231.961426,160.879730 231.935547,160.434006 232.124298,159.761749 
	C231.531693,157.480759 230.724442,155.426315 229.917191,153.371857 
	C231.221161,154.213638 232.525146,155.055420 233.935181,156.681580 
	C234.634232,158.313766 235.227203,159.161530 235.820190,160.009308 
	C236.203812,161.171051 236.587433,162.332779 236.896301,163.793381 
z"/>
<path fill="#898989" opacity="1.000000" stroke="none" 
	d="
M105.138107,73.519592 
	C108.627556,69.587677 113.141434,70.038315 114.997589,74.648651 
	C111.807800,74.636986 108.607018,74.220940 105.138107,73.519592 
z"/>
<path fill="#9A9A9A" opacity="1.000000" stroke="none" 
	d="
M72.762634,66.486633 
	C77.883842,67.252251 83.201294,68.337349 88.755821,69.702759 
	C83.648224,68.924088 78.303543,67.865097 72.762634,66.486633 
z"/>
<path fill="#3E3E3E" opacity="1.000000" stroke="none" 
	d="
M229.870331,153.410339 
	C230.724442,155.426315 231.531693,157.480759 231.765152,159.764908 
	C229.793625,159.662445 228.395905,159.330307 226.972717,158.971771 
	C226.947266,158.945374 226.896317,158.892624 226.924545,158.478378 
	C226.980469,156.382568 227.008148,154.701019 227.035828,153.019455 
	C227.701218,152.954086 228.366577,152.888718 229.312134,153.086670 
	C229.592331,153.349991 229.823486,153.448807 229.870331,153.410339 
z"/>
<path fill="#989696" opacity="1.000000" stroke="none" 
	d="
M22.804157,5.161431 
	C23.044590,6.587044 23.019995,7.837635 22.993855,9.552505 
	C20.623583,8.069168 18.254856,6.121552 15.886127,4.173936 
	C16.129198,3.724392 16.372269,3.274848 16.615339,2.825303 
	C18.589935,3.545672 20.564533,4.266041 22.804157,5.161431 
z"/>
<path fill="#818181" opacity="1.000000" stroke="none" 
	d="
M41.652496,53.033939 
	C42.967091,55.251358 43.933876,57.501801 44.889774,60.150795 
	C43.822216,60.413616 42.765545,60.277897 41.344528,59.976044 
	C40.882179,57.552338 34.781109,55.005871 41.652496,53.033939 
z"/>
<path fill="#656566" opacity="1.000000" stroke="none" 
	d="
M200.113251,97.384399 
	C200.511703,96.635063 201.115082,96.035995 201.894989,95.162773 
	C204.010468,95.895714 205.949417,96.902802 207.850220,98.579216 
	C207.381485,99.588066 206.950882,99.927589 206.520294,100.267113 
	C205.865082,100.073006 205.209885,99.878899 204.176117,99.192787 
	C203.095703,98.512749 202.393845,98.324707 201.691971,98.136665 
	C201.234039,97.936005 200.776093,97.735336 200.113251,97.384399 
z"/>
<path fill="#656566" opacity="1.000000" stroke="none" 
	d="
M214.839661,102.699059 
	C214.725922,103.551804 214.441269,104.113686 214.002380,104.950974 
	C212.406921,104.107773 210.965683,102.989159 209.279541,101.264091 
	C209.040939,100.036697 209.047272,99.415756 209.053589,98.794807 
	C210.925293,99.999268 212.797028,101.203735 214.839661,102.699059 
z"/>
<path fill="#060706" opacity="1.000000" stroke="none" 
	d="
M207.052185,132.380569 
	C207.084656,132.948898 207.037537,133.153748 206.946228,133.670715 
	C205.374420,134.322876 203.858749,134.747818 202.313858,134.965149 
	C201.602783,135.065201 200.834503,134.758636 200.291443,134.154388 
	C200.655319,133.116577 200.819931,132.560822 200.984543,132.005051 
	C201.552322,131.821808 202.120087,131.638565 202.855606,131.200165 
	C204.339767,131.302353 205.656189,131.659714 207.052185,132.380569 
z"/>
<path fill="#3E3E3E" opacity="1.000000" stroke="none" 
	d="
M252.957138,111.246292 
	C253.818207,111.306694 254.679276,111.367096 255.860260,111.848412 
	C256.483551,112.136101 256.786896,112.002884 257.090240,111.869659 
	C257.948975,111.724739 258.807739,111.579834 259.836792,111.949554 
	C259.999146,112.891861 259.991150,113.319550 259.983185,113.747238 
	C257.945007,113.840576 255.906845,113.933914 253.438263,113.608025 
	C252.990967,112.541298 252.974060,111.893791 252.957138,111.246292 
z"/>
<path fill="#5D5D5D" opacity="1.000000" stroke="none" 
	d="
M206.301880,182.081970 
	C207.829147,181.737961 209.644974,181.588715 211.723953,181.679260 
	C210.188217,182.038269 208.389328,182.157501 206.301880,182.081970 
z"/>
<path fill="#898989" opacity="1.000000" stroke="none" 
	d="
M92.022629,37.616276 
	C90.353699,38.899330 88.631149,39.373161 88.040115,36.073532 
	C89.276016,36.262188 90.527092,36.818058 92.022629,37.616276 
z"/>
<path fill="#9A9A9A" opacity="1.000000" stroke="none" 
	d="
M97.331635,71.928391 
	C98.302803,71.816368 99.455971,71.996094 100.765503,72.412979 
	C99.785789,72.506813 98.649712,72.363480 97.331635,71.928391 
z"/>
<path fill="#484848" opacity="1.000000" stroke="none" 
	d="
M260.300781,113.800217 
	C259.991150,113.319550 259.999146,112.891861 260.028259,112.141502 
	C260.973175,111.940765 261.896973,112.062691 263.201874,112.456894 
	C262.594788,113.103851 261.606598,113.478523 260.300781,113.800217 
z"/>
<path fill="#484848" opacity="1.000000" stroke="none" 
	d="
M252.640381,111.178177 
	C252.974060,111.893791 252.990967,112.541298 253.009247,113.515167 
	C252.555420,113.881805 252.100235,113.922066 251.314880,113.861404 
	C250.995605,113.113998 251.006500,112.467514 251.026489,111.501724 
	C251.464920,111.158295 251.894272,111.134178 252.640381,111.178177 
z"/>
<path fill="#484848" opacity="1.000000" stroke="none" 
	d="
M266.225159,111.796692 
	C266.735535,111.140465 267.563019,110.562546 268.730865,110.015137 
	C268.228210,110.655434 267.385223,111.265213 266.225159,111.796692 
z"/>
<path fill="#737373" opacity="1.000000" stroke="none" 
	d="
M208.835785,98.701050 
	C209.047272,99.415756 209.040939,100.036697 209.056122,100.964577 
	C208.332870,101.109581 207.588089,100.947655 206.681808,100.526428 
	C206.950882,99.927589 207.381485,99.588066 207.985458,98.868637 
	C208.158844,98.488739 208.617996,98.607285 208.835785,98.701050 
z"/>
<path fill="#818181" opacity="1.000000" stroke="none" 
	d="
M125.641594,77.666824 
	C126.165573,78.015953 126.547905,78.673737 126.953232,79.552498 
	C126.484123,79.174141 125.992035,78.574806 125.641594,77.666824 
z"/>
<path fill="#242625" opacity="1.000000" stroke="none" 
	d="
M235.838806,159.687622 
	C235.227203,159.161530 234.634232,158.313766 234.073044,157.104797 
	C234.689041,157.617722 235.273239,158.491837 235.838806,159.687622 
z"/>
<path fill="#8D8D8D" opacity="1.000000" stroke="none" 
	d="
M32.838211,44.679092 
	C32.390587,44.921169 31.743925,44.954220 31.030226,44.729050 
	C31.521852,44.470573 32.080517,44.470318 32.838211,44.679092 
z"/>
<path fill="#969593" opacity="1.000000" stroke="none" 
	d="
M51.200920,62.176132 
	C51.644806,61.954708 52.272141,61.960461 52.967598,62.202774 
	C52.485268,62.427326 51.934818,62.415318 51.200920,62.176132 
z"/>
<path fill="#9A9A9A" opacity="1.000000" stroke="none" 
	d="
M92.625854,70.476242 
	C93.223534,70.399811 93.989670,70.596344 94.878387,71.070061 
	C94.265419,71.147896 93.529869,70.948555 92.625854,70.476242 
z"/>
<path fill="#868585" opacity="1.000000" stroke="none" 
	d="
M192.735901,94.478958 
	C193.313232,94.405548 194.061905,94.590530 194.936981,95.050583 
	C194.344681,95.129539 193.625946,94.933441 192.735901,94.478958 
z"/>
<path fill="#737373" opacity="1.000000" stroke="none" 
	d="
M201.852936,98.382629 
	C202.393845,98.324707 203.095703,98.512749 203.919403,98.958176 
	C203.365463,99.019897 202.689697,98.824242 201.852936,98.382629 
z"/>
<path fill="#898989" opacity="1.000000" stroke="none" 
	d="
M87.295242,40.884998 
	C87.212814,40.594128 87.302971,40.208603 87.513260,40.124901 
	C87.683640,40.057091 87.998474,40.352192 88.249229,40.486328 
	C88.006065,40.631142 87.762901,40.775951 87.295242,40.884998 
z"/>
<path fill="#FAFAFA" opacity="1.000000" stroke="none" 
	d="
M266.511230,94.172562 
	C268.872986,97.876854 269.287292,101.527603 266.896973,105.541107 
	C264.440430,106.153252 262.144257,106.454178 259.173248,106.555862 
	C252.784729,104.146011 247.078979,101.914658 241.355591,99.729500 
	C231.913315,96.124504 222.459641,92.549362 212.757492,88.713470 
	C210.675171,87.960899 208.846130,87.456490 206.906464,86.766762 
	C206.576996,86.345528 206.312210,86.269402 206.001511,86.353073 
	C203.465897,84.473083 200.925095,82.600029 198.395920,80.711449 
	C194.768387,78.002693 195.410110,74.825012 198.134460,71.238892 
	C204.070587,70.791496 209.585037,69.422974 214.423569,70.672272 
	C225.422546,73.512192 236.089401,77.638481 246.891251,81.241920 
	C253.320511,85.523796 259.749756,89.805672 266.511230,94.172562 
z"/>
<path fill="#242625" opacity="1.000000" stroke="none" 
	d="
M173.045120,73.422363 
	C171.542114,67.302292 173.227936,65.129982 179.162354,64.975586 
	C184.261978,64.842896 189.358841,64.603889 194.730194,64.697388 
	C194.594589,65.702499 194.363663,66.775856 193.748459,67.085373 
	C189.128265,69.409775 184.432327,71.583580 180.987946,73.220848 
	C180.386047,74.938911 180.025970,75.966690 179.316498,77.006653 
	C177.009293,75.932022 175.051529,74.845200 173.045120,73.422363 
z"/>
<path fill="#565656" opacity="1.000000" stroke="none" 
	d="
M246.925323,80.928589 
	C236.089401,77.638481 225.422546,73.512192 214.423569,70.672272 
	C209.585037,69.422974 204.070587,70.791496 198.443832,71.013763 
	C202.048874,65.537216 208.068619,66.321129 213.194443,67.526520 
	C222.990707,69.830208 232.533005,73.242630 242.119644,76.381371 
	C243.774673,76.923241 245.128250,78.385834 246.814087,79.704918 
	C246.991211,80.196228 246.975311,80.405746 246.925323,80.928589 
z"/>
<path fill="#1B1B1B" opacity="1.000000" stroke="none" 
	d="
M205.951645,86.669418 
	C206.312210,86.269402 206.576996,86.345528 206.901520,87.173767 
	C207.001358,88.853065 206.995499,89.940033 206.989624,91.027008 
	C205.675049,90.579216 204.360458,90.131424 202.995850,89.361046 
	C203.931137,88.354233 204.916458,87.669998 205.951645,86.669418 
z"/>
<path fill="#989696" opacity="1.000000" stroke="none" 
	d="
M105.000565,63.660194 
	C103.623726,64.601280 102.205376,65.791496 100.878159,65.697311 
	C96.306023,65.372864 91.387924,65.509621 87.291710,63.808743 
	C78.681000,60.233299 69.453445,61.069687 60.743122,58.796780 
	C59.958042,58.591915 59.574112,56.849770 59.001183,55.406353 
	C68.676926,56.162849 78.368668,57.236427 88.028702,58.544125 
	C93.558205,59.292667 99.036163,60.421917 104.771317,61.670105 
	C105.003815,62.413815 105.002319,62.867184 105.000565,63.660194 
z"/>
<path fill="#656566" opacity="1.000000" stroke="none" 
	d="
M132.430267,73.224808 
	C130.480301,72.886765 128.880020,72.458885 126.427345,71.803108 
	C128.499481,70.334770 129.698029,69.485474 131.048660,68.062607 
	C131.413757,67.223366 131.687698,67.059669 132.022598,66.997925 
	C133.525513,67.223900 135.028427,67.449875 136.531326,67.675850 
	C136.749619,68.120155 136.967896,68.564461 137.186188,69.008774 
	C135.717438,70.384171 134.248703,71.759575 132.430267,73.224808 
z"/>
<path fill="#313131" opacity="1.000000" stroke="none" 
	d="
M132.035065,66.750679 
	C131.687698,67.059669 131.413757,67.223366 131.101868,67.710823 
	C131.283676,67.139313 131.564377,66.346008 132.012848,65.789619 
	C132.180588,66.026527 132.047546,66.503433 132.035065,66.750679 
z"/>
<path fill="#898989" opacity="1.000000" stroke="none" 
	d="
M146.531860,75.552216 
	C146.477051,75.585297 146.586685,75.519127 146.531860,75.552216 
z"/>
<path fill="#1B1B1B" opacity="1.000000" stroke="none" 
	d="
M213.010773,88.961632 
	C222.459641,92.549362 231.913315,96.124504 241.355591,99.729500 
	C247.078979,101.914658 252.784729,104.146011 258.772522,106.598480 
	C255.460541,106.645096 251.842102,106.677429 248.299820,106.173943 
	C245.968140,105.842529 243.706772,104.835884 241.493698,103.935493 
	C240.551712,103.552238 239.812805,102.668907 238.983063,102.011032 
	C238.219543,101.405647 237.519684,100.380333 236.685699,100.256966 
	C229.751587,99.231232 222.725235,98.699852 215.877472,97.287994 
	C213.404938,96.778206 211.343048,94.276764 209.360077,92.206535 
	C210.754532,90.806480 211.882645,89.884056 213.010773,88.961632 
z"/>
<path fill="#1F2020" opacity="1.000000" stroke="none" 
	d="
M212.757492,88.713470 
	C211.882645,89.884056 210.754532,90.806480 209.307190,91.868103 
	C208.519440,91.693909 208.050903,91.380508 207.285995,91.047058 
	C206.995499,89.940033 207.001358,88.853065 207.012146,87.359085 
	C208.846130,87.456490 210.675171,87.960899 212.757492,88.713470 
z"/>
<path fill="#484848" opacity="1.000000" stroke="none" 
	d="
M256.821503,111.869537 
	C256.786896,112.002884 256.483551,112.136101 256.097778,112.074196 
	C256.194489,111.875847 256.373627,111.872627 256.821503,111.869537 
z"/>
<path fill="#313131" opacity="1.000000" stroke="none" 
	d="
M166.350769,136.148010 
	C163.914734,130.837784 161.745972,125.695877 159.652802,120.523369 
	C158.067062,116.604851 156.577713,112.647331 154.955017,108.321701 
	C155.055801,107.655579 155.247025,107.374916 155.788849,107.204628 
	C156.431870,107.548187 156.724289,107.781372 157.048981,108.382713 
	C161.266159,117.585724 165.342789,126.474045 169.671204,135.238022 
	C172.960220,141.897415 176.569458,148.398682 179.801758,155.095734 
	C179.358292,155.504990 179.149292,155.788803 178.940277,156.072617 
	C176.484787,152.131470 174.026901,148.191818 171.574661,144.248657 
	C169.929138,141.602722 168.291626,138.951828 166.350769,136.148010 
z"/>
<path fill="#1F2020" opacity="1.000000" stroke="none" 
	d="
M157.016708,108.014557 
	C156.724289,107.781372 156.431870,107.548187 156.002625,107.063911 
	C156.691971,106.189819 157.518158,105.566818 158.664062,104.873459 
	C159.744247,104.848206 160.504730,104.893303 161.646530,104.915466 
	C164.648010,106.663933 167.268173,108.435333 169.810989,110.629150 
	C169.392883,111.532654 169.052124,112.013741 168.711380,112.494827 
	C169.141129,112.662933 169.570862,112.831047 170.000198,113.375519 
	C169.999557,114.504608 169.999313,115.257339 169.978790,116.309830 
	C169.632568,117.080215 169.306610,117.550858 168.735535,118.013588 
	C168.490433,118.005684 168.000000,118.000000 167.843109,117.683456 
	C165.116272,114.581413 162.546341,111.795906 159.684052,108.884926 
	C158.600037,108.511154 157.808365,108.262856 157.016708,108.014557 
z"/>
<path fill="#FAFAFA" opacity="1.000000" stroke="none" 
	d="
M194.114777,168.727829 
	C193.620712,168.155701 193.126648,167.583572 192.261749,166.594513 
	C190.616623,164.716736 189.342316,163.255890 188.068008,161.795044 
	C187.247025,159.988846 186.426041,158.182648 185.299561,155.901627 
	C184.679565,155.233047 184.365097,155.039276 184.050629,154.845505 
	C184.050629,154.845505 184.045273,154.942200 184.050995,154.528351 
	C182.850983,150.327698 183.504395,146.735046 185.191223,143.250320 
	C186.540344,142.419266 187.889481,141.588211 189.958496,140.739166 
	C201.377319,143.428482 210.783676,148.653351 218.594879,156.321716 
	C224.799042,162.412460 224.289917,167.830505 217.575363,173.924011 
	C208.122025,178.288727 200.892822,174.491913 194.114777,168.727829 
z"/>
<path fill="#3E3E3E" opacity="1.000000" stroke="none" 
	d="
M217.950333,173.826141 
	C224.289917,167.830505 224.799042,162.412460 218.594879,156.321716 
	C210.783676,148.653351 201.377319,143.428482 190.281296,140.612610 
	C192.693771,140.315552 195.643204,139.503189 198.278137,140.093842 
	C201.702286,140.861389 204.876404,142.744385 208.760376,144.436066 
	C213.591919,148.137817 217.821213,151.550781 222.136902,155.246796 
	C222.815735,156.020096 223.408173,156.510345 224.256836,157.169754 
	C225.307480,157.856812 226.101898,158.374710 226.896317,158.892624 
	C226.896317,158.892624 226.947266,158.945374 226.969925,159.384674 
	C227.031464,163.070450 226.218216,167.130707 231.912796,164.976089 
	C231.935120,165.144989 231.957428,165.313904 231.862823,166.030396 
	C231.505920,167.391571 231.265945,168.205200 231.025970,169.018814 
	C226.933777,171.329330 222.841583,173.639847 218.377136,175.621796 
	C217.986710,174.804184 217.968521,174.315170 217.950333,173.826141 
z"/>
<path fill="#313131" opacity="1.000000" stroke="none" 
	d="
M168.000000,118.000000 
	C168.000000,118.000000 168.490433,118.005684 168.765976,118.339325 
	C169.250809,120.110344 169.123917,121.711151 169.729065,122.956123 
	C172.036453,127.703049 174.579849,132.335251 177.144897,137.277603 
	C177.828842,138.037155 178.402969,138.529419 178.977097,139.021683 
	C178.988541,139.455704 178.999969,139.889725 179.026611,141.048447 
	C179.687576,145.184921 180.333328,148.596680 180.705231,151.792969 
	C174.963760,140.379486 169.496140,129.181473 164.425110,117.986778 
	C165.881149,117.993393 166.940567,117.996696 168.000000,118.000000 
z"/>
<path fill="#121313" opacity="1.000000" stroke="none" 
	d="
M179.152588,138.774536 
	C178.402969,138.529419 177.828842,138.037155 177.524506,137.192856 
	C180.517944,131.160690 179.890091,127.405304 175.841019,123.843719 
	C174.930481,123.042816 174.509521,121.709190 173.753510,120.703239 
	C172.550461,119.102455 171.255280,117.570908 169.999069,116.010071 
	C169.999313,115.257339 169.999557,114.504608 170.266876,113.207191 
	C170.762772,112.311882 170.991562,111.961258 171.220352,111.610626 
	C172.059341,112.121399 172.898346,112.632164 173.909332,113.733932 
	C174.604660,116.703957 175.677612,118.153633 178.371658,116.862358 
	C179.166977,117.335556 179.962311,117.808754 180.907410,118.518440 
	C181.043411,119.245171 180.852249,119.822006 181.042877,120.212440 
	C183.328003,124.892570 182.554306,129.543549 181.008087,134.976990 
	C181.013000,136.501724 181.018997,137.250854 181.024979,138.000000 
	C180.459351,138.175797 179.893707,138.351608 179.152588,138.774536 
z"/>
<path fill="#060706" opacity="1.000000" stroke="none" 
	d="
M222.050491,154.963760 
	C217.821213,151.550781 213.591919,148.137817 209.133698,144.486969 
	C209.475296,143.350327 210.045792,142.451569 210.806427,141.283371 
	C215.172485,145.199677 219.348419,149.385422 223.791794,154.049149 
	C224.050446,154.709961 224.041656,154.892792 223.702316,155.052460 
	C222.931335,155.007446 222.490921,154.985611 222.050491,154.963760 
z"/>
<path fill="#121313" opacity="1.000000" stroke="none" 
	d="
M180.979065,152.008453 
	C180.333328,148.596680 179.687576,145.184921 179.066254,141.371475 
	C179.517685,140.976807 179.944687,140.983810 180.692001,141.349701 
	C181.225052,142.676865 181.437805,143.645142 181.681305,144.753433 
	C183.026794,143.942993 183.963013,143.379059 184.899231,142.815140 
	C184.899231,142.815140 185.070511,143.015762 185.130859,143.133041 
	C183.504395,146.735046 182.850983,150.327698 184.098633,154.519653 
	C183.698929,154.943634 183.257324,154.962448 182.409561,154.668350 
	C181.661957,153.573120 181.320511,152.790787 180.979065,152.008453 
z"/>
<path fill="#060706" opacity="1.000000" stroke="none" 
	d="
M181.419403,137.998260 
	C181.018997,137.250854 181.013000,136.501724 181.010834,135.378082 
	C184.661606,133.809738 188.308563,132.615906 191.955521,131.422058 
	C192.081451,131.845795 192.207367,132.269547 192.333298,132.693283 
	C188.826813,134.461029 185.320312,136.228775 181.419403,137.998260 
z"/>
<path fill="#060706" opacity="1.000000" stroke="none" 
	d="
M184.924316,142.475037 
	C183.963013,143.379059 183.026794,143.942993 181.681305,144.753433 
	C181.437805,143.645142 181.225052,142.676865 181.013153,141.352142 
	C182.588165,140.469177 184.535065,138.654968 184.924316,142.475037 
z"/>
<path fill="#121313" opacity="1.000000" stroke="none" 
	d="
M189.509033,126.920135 
	C188.593674,127.763947 187.625763,128.277176 186.657837,128.790421 
	C186.465240,128.204926 186.272629,127.619431 186.080017,127.033936 
	C187.205505,126.885811 188.330978,126.737679 189.509033,126.920135 
z"/>
<path fill="#121313" opacity="1.000000" stroke="none" 
	d="
M200.692841,132.036163 
	C200.819931,132.560822 200.655319,133.116577 200.246704,133.842010 
	C200.135529,133.363525 200.268341,132.715408 200.692841,132.036163 
z"/>
<path fill="#242625" opacity="1.000000" stroke="none" 
	d="
M217.575363,173.924011 
	C217.968521,174.315170 217.986710,174.804184 217.999344,175.660767 
	C213.670578,180.483292 208.701187,178.418671 203.846939,177.414459 
	C201.770508,176.984909 199.709229,176.482086 197.212128,176.032349 
	C194.882736,174.965546 192.982315,173.878937 190.993195,172.464584 
	C191.847763,171.200592 192.791046,170.264359 193.924561,169.027985 
	C200.892822,174.491913 208.122025,178.288727 217.575363,173.924011 
z"/>
<path fill="#242625" opacity="1.000000" stroke="none" 
	d="
M231.367752,168.962341 
	C231.265945,168.205200 231.505920,167.391571 231.884216,166.285049 
	C232.190338,165.993286 232.358109,165.994415 232.777878,165.998993 
	C232.589767,166.970245 232.149643,167.938049 231.367752,168.962341 
z"/>
<path fill="#242625" opacity="1.000000" stroke="none" 
	d="
M224.032867,155.075623 
	C224.041656,154.892792 224.050446,154.709961 224.077652,154.252747 
	C224.864868,153.666901 225.633652,153.355438 226.719147,153.031708 
	C227.008148,154.701019 226.980469,156.382568 226.924545,158.478378 
	C226.101898,158.374710 225.307480,157.856812 224.259476,156.848373 
	C224.014877,155.930435 224.023865,155.503036 224.032867,155.075623 
z"/>
<path fill="#242625" opacity="1.000000" stroke="none" 
	d="
M178.983124,156.408447 
	C179.149292,155.788803 179.358292,155.504990 180.036560,155.111389 
	C180.505844,155.001602 180.975098,155.046677 180.975098,155.046677 
	C181.699219,157.232101 182.423355,159.417542 183.031403,161.914886 
	C181.618896,160.399292 180.322433,158.571793 178.983124,156.408447 
z"/>
<path fill="#090909" opacity="1.000000" stroke="none" 
	d="
M178.160629,116.596756 
	C175.677612,118.153633 174.604660,116.703957 174.096558,113.965515 
	C175.391052,114.514442 176.670319,115.422806 178.160629,116.596756 
z"/>
<path fill="#090909" opacity="1.000000" stroke="none" 
	d="
M171.116058,111.419563 
	C170.991562,111.961258 170.762772,112.311882 170.267303,112.830826 
	C169.570862,112.831047 169.141129,112.662933 168.711380,112.494827 
	C169.052124,112.013741 169.392883,111.532654 170.004181,110.917259 
	C170.565308,110.857162 170.811005,111.005684 171.116058,111.419563 
z"/>
<path fill="#484848" opacity="1.000000" stroke="none" 
	d="
M181.269043,155.027451 
	C180.975098,155.046677 180.505844,155.001602 180.271027,154.985962 
	C176.569458,148.398682 172.960220,141.897415 169.671204,135.238022 
	C165.342789,126.474045 161.266159,117.585724 157.048981,108.382713 
	C157.808365,108.262856 158.600037,108.511154 159.733002,109.242645 
	C161.392380,112.478378 162.710449,115.230919 164.028503,117.983467 
	C169.496140,129.181473 174.963760,140.379486 180.705231,151.792969 
	C181.320511,152.790787 181.661957,153.573120 182.077515,154.669617 
	C181.955414,154.991928 181.759186,155.000076 181.269043,155.027451 
z"/>
<path fill="#242625" opacity="1.000000" stroke="none" 
	d="
M188.050232,162.188187 
	C189.342316,163.255890 190.616623,164.716736 191.995590,166.484070 
	C187.576843,168.448532 188.473236,164.868790 188.050232,162.188187 
z"/>
<path fill="#242625" opacity="1.000000" stroke="none" 
	d="
M184.787292,163.422363 
	C185.465622,163.593140 185.966751,163.940887 186.467880,164.288651 
	C186.299591,164.473190 186.131302,164.657730 185.963013,164.842285 
	C185.512039,164.427963 185.061081,164.013657 184.787292,163.422363 
z"/>
<path fill="#121313" opacity="1.000000" stroke="none" 
	d="
M184.141235,155.099915 
	C184.365097,155.039276 184.679565,155.233047 185.034424,155.704498 
	C184.793808,155.772919 184.512833,155.563629 184.141235,155.099915 
z"/>
<path fill="#484848" opacity="1.000000" stroke="none" 
	d="
M231.944443,164.734024 
	C226.218216,167.130707 227.031464,163.070450 226.995377,159.411072 
	C228.395905,159.330307 229.793625,159.662445 231.550507,159.991440 
	C231.935547,160.434006 231.961426,160.879730 231.983948,161.994843 
	C231.993469,163.111359 232.006332,163.558487 232.019196,164.005600 
	C232.019196,164.005600 231.976089,164.491959 231.944443,164.734024 
z"/>
<path fill="#242625" opacity="1.000000" stroke="none" 
	d="
M232.316162,163.966400 
	C232.006332,163.558487 231.993469,163.111359 232.000549,162.329163 
	C232.534546,162.230301 233.048599,162.466537 233.562653,162.702759 
	C233.246140,163.110916 232.929626,163.519058 232.316162,163.966400 
z"/>
<path fill="#242625" opacity="1.000000" stroke="none" 
	d="
M169.978790,116.309830 
	C171.255280,117.570908 172.550461,119.102455 173.753510,120.703239 
	C174.509521,121.709190 174.930481,123.042816 175.841019,123.843719 
	C179.890091,127.405304 180.517944,131.160690 177.414673,136.925568 
	C174.579849,132.335251 172.036453,127.703049 169.729065,122.956123 
	C169.123917,121.711151 169.250809,120.110344 169.011078,118.347229 
	C169.306610,117.550858 169.632568,117.080215 169.978790,116.309830 
z"/>
<path fill="#242625" opacity="1.000000" stroke="none" 
	d="
M164.425110,117.986778 
	C162.710449,115.230919 161.392380,112.478378 160.025360,109.368118 
	C162.546341,111.795906 165.116272,114.581413 167.843109,117.683456 
	C166.940567,117.996696 165.881149,117.993393 164.425110,117.986778 
z"/>
<path fill="#1B1B1B" opacity="1.000000" stroke="none" 
	d="
M223.702316,155.052460 
	C224.023865,155.503036 224.014877,155.930435 224.003250,156.679230 
	C223.408173,156.510345 222.815735,156.020096 222.136902,155.246796 
	C222.490921,154.985611 222.931335,155.007446 223.702316,155.052460 
z"/>
</svg>